<svg width="48" height="48" viewBox="0 0 48 48" fill="none" xmlns="http://www.w3.org/2000/svg">
<path d="M31.5 21V12C31.5 10.0109 30.7098 8.10322 29.3033 6.6967C27.8967 5.29018 25.9891 4.5 24 4.5C22.0108 4.5 20.1032 5.29018 18.6967 6.6967C17.2901 8.10322 16.5 10.0109 16.5 12V21M39.212 17.014L41.738 41.014C41.878 42.344 40.838 43.5 39.5 43.5H8.49997C8.18439 43.5003 7.87226 43.4343 7.58387 43.3061C7.29547 43.178 7.03727 42.9906 6.82602 42.7561C6.61477 42.5217 6.4552 42.2454 6.35768 41.9453C6.26016 41.6451 6.22687 41.3278 6.25997 41.014L8.78797 17.014C8.84628 16.4611 9.10722 15.9494 9.52047 15.5775C9.93372 15.2056 10.47 14.9999 11.026 15H36.974C38.126 15 39.092 15.87 39.212 17.014ZM17.25 21C17.25 21.1989 17.171 21.3897 17.0303 21.5303C16.8896 21.671 16.6989 21.75 16.5 21.75C16.3011 21.75 16.1103 21.671 15.9696 21.5303C15.829 21.3897 15.75 21.1989 15.75 21C15.75 20.8011 15.829 20.6103 15.9696 20.4697C16.1103 20.329 16.3011 20.25 16.5 20.25C16.6989 20.25 16.8896 20.329 17.0303 20.4697C17.171 20.6103 17.25 20.8011 17.25 21ZM32.25 21C32.25 21.1989 32.171 21.3897 32.0303 21.5303C31.8896 21.671 31.6989 21.75 31.5 21.75C31.3011 21.75 31.1103 21.671 30.9696 21.5303C30.829 21.3897 30.75 21.1989 30.75 21C30.75 20.8011 30.829 20.6103 30.9696 20.4697C31.1103 20.329 31.3011 20.25 31.5 20.25C31.6989 20.25 31.8896 20.329 32.0303 20.4697C32.171 20.6103 32.25 20.8011 32.25 21Z" stroke="#7F22FE" stroke-width="2" stroke-linecap="round" stroke-linejoin="round"/>
<path d="M20.7525 27H19.7638L21.2702 22.6364H22.4592L23.9634 27H22.9748L21.8817 23.6335H21.8477L20.7525 27ZM20.6907 25.2848H23.0259V26.005H20.6907V25.2848ZM25.3793 22.6364V27H24.4716V22.6364H25.3793ZM27.014 22.6364V27H26.1064V22.6364H27.014ZM22.0948 28.6364V33H21.1722V28.6364H22.0948ZM23.7445 31.108V33H22.8368V29.7273H23.7019V30.3047H23.7402C23.8127 30.1143 23.9341 29.9638 24.1046 29.853C24.275 29.7408 24.4817 29.6847 24.7246 29.6847C24.9519 29.6847 25.15 29.7344 25.3191 29.8338C25.4881 29.9332 25.6195 30.0753 25.7132 30.2599C25.807 30.4432 25.8539 30.6619 25.8539 30.9162V33H24.9462V31.0781C24.9476 30.8778 24.8965 30.7216 24.7928 30.6094C24.6891 30.4957 24.5463 30.4389 24.3645 30.4389C24.2424 30.4389 24.1344 30.4652 24.0407 30.5178C23.9483 30.5703 23.8759 30.647 23.8233 30.7479C23.7722 30.8473 23.7459 30.9673 23.7445 31.108ZM21.8833 36.8182C21.8833 37.294 21.7931 37.6989 21.6127 38.0327C21.4338 38.3665 21.1895 38.6214 20.8798 38.7976C20.5716 38.9723 20.225 39.0597 19.84 39.0597C19.4522 39.0597 19.1042 38.9716 18.796 38.7955C18.4877 38.6193 18.2441 38.3643 18.0652 38.0305C17.8862 37.6967 17.7967 37.2926 17.7967 36.8182C17.7967 36.3423 17.8862 35.9375 18.0652 35.6037C18.2441 35.2699 18.4877 35.0156 18.796 34.8409C19.1042 34.6648 19.4522 34.5767 19.84 34.5767C20.225 34.5767 20.5716 34.6648 20.8798 34.8409C21.1895 35.0156 21.4338 35.2699 21.6127 35.6037C21.7931 35.9375 21.8833 36.3423 21.8833 36.8182ZM20.948 36.8182C20.948 36.5099 20.9018 36.25 20.8095 36.0384C20.7186 35.8267 20.59 35.6662 20.4238 35.5568C20.2576 35.4474 20.063 35.3928 19.84 35.3928C19.617 35.3928 19.4224 35.4474 19.2562 35.5568C19.09 35.6662 18.9608 35.8267 18.8684 36.0384C18.7775 36.25 18.7321 36.5099 18.7321 36.8182C18.7321 37.1264 18.7775 37.3864 18.8684 37.598C18.9608 37.8097 19.09 37.9702 19.2562 38.0795C19.4224 38.1889 19.617 38.2436 19.84 38.2436C20.063 38.2436 20.2576 38.1889 20.4238 38.0795C20.59 37.9702 20.7186 37.8097 20.8095 37.598C20.9018 37.3864 20.948 37.1264 20.948 36.8182ZM23.4574 37.108V39H22.5497V35.7273H23.4148V36.3047H23.4531C23.5256 36.1143 23.647 35.9638 23.8175 35.853C23.9879 35.7408 24.1946 35.6847 24.4375 35.6847C24.6648 35.6847 24.8629 35.7344 25.032 35.8338C25.201 35.9332 25.3324 36.0753 25.4261 36.2599C25.5199 36.4432 25.5668 36.6619 25.5668 36.9162V39H24.6591V37.0781C24.6605 36.8778 24.6094 36.7216 24.5057 36.6094C24.402 36.4957 24.2592 36.4389 24.0774 36.4389C23.9553 36.4389 23.8473 36.4652 23.7536 36.5178C23.6612 36.5703 23.5888 36.647 23.5362 36.7479C23.4851 36.8473 23.4588 36.9673 23.4574 37.108ZM27.7736 39.0639C27.437 39.0639 27.1472 38.9957 26.9043 38.8594C26.6628 38.7216 26.4767 38.527 26.3461 38.2756C26.2154 38.0227 26.15 37.7237 26.15 37.3786C26.15 37.0419 26.2154 36.7464 26.3461 36.4922C26.4767 36.2379 26.6607 36.0398 26.8979 35.8977C27.1365 35.7557 27.4164 35.6847 27.7374 35.6847C27.9533 35.6847 28.1543 35.7195 28.3404 35.7891C28.5279 35.8572 28.6912 35.9602 28.8304 36.098C28.9711 36.2358 29.0804 36.4091 29.1586 36.6179C29.2367 36.8253 29.2757 37.0682 29.2757 37.3466V37.5959H26.5123V37.0334H28.4213C28.4213 36.9027 28.3929 36.7869 28.3361 36.6861C28.2793 36.5852 28.2005 36.5064 28.0996 36.4496C28.0002 36.3913 27.8844 36.3622 27.7523 36.3622C27.6145 36.3622 27.4924 36.3942 27.3858 36.4581C27.2807 36.5206 27.1983 36.6051 27.1387 36.7116C27.079 36.8168 27.0485 36.9339 27.0471 37.0632V37.598C27.0471 37.7599 27.0769 37.8999 27.1365 38.0178C27.1976 38.1357 27.2836 38.2266 27.3944 38.2905C27.5051 38.3544 27.6365 38.3864 27.7885 38.3864C27.8894 38.3864 27.9817 38.3722 28.0655 38.3438C28.1493 38.3153 28.2211 38.2727 28.2807 38.2159C28.3404 38.1591 28.3858 38.0895 28.4171 38.0071L29.2566 38.0625C29.214 38.2642 29.1266 38.4403 28.9945 38.5909C28.8638 38.7401 28.6948 38.8565 28.4874 38.9403C28.2814 39.0227 28.0435 39.0639 27.7736 39.0639Z" fill="white"/>
</svg>
